<?xml version="1.0" encoding="utf-8"?>
<svg xmlns="http://www.w3.org/2000/svg" viewBox="80 -854 800 734" width="20px" height="18.35px"><g id="object-0" transform="matrix(1, 0, 0, 1, -1.4210854715202004e-14, 0)"><path d="m480-120-58-52q-101-91-167-157T150-447.5Q111-500 95.5-544T80-634q0-94 63-157t157-63q52 0 99 22t81 62q34-40 81-62t99-22q94 0 157 63t63 157q0 46-15.5 90T810-447.5Q771-395 705-329T538-172l-58 52Zm0-108q96-86 158-147.5t98-107q36-45.5 50-81t14-70.5q0-60-40-100t-100-40q-47 0-87 26.5T518-680h-76q-15-41-55-67.5T300-774q-60 0-100 40t-40 100q0 35 14 70.5t50 81q36 45.5 98 107T480-228Zm0-273Z"/><path style="" d="M 297.09 -807.971 C 297.09 -807.971 167.232 -773.764 168.499 -773.764 C 169.766 -773.764 115.289 -638.205 115.289 -638.839 C 115.289 -639.473 161.531 -491.877 161.531 -491.877 L 482.059 -167.549 L 776.615 -469.706 L 839.96 -625.536 L 806.387 -754.127 L 689.198 -818.74 L 533.369 -781.999 L 480.792 -719.921 C 480.792 -719.921 395.909 -762.362 395.909 -764.263 C 395.909 -766.164 298.99 -811.138 297.09 -807.971 Z"/></g></svg>