<?xml version="1.0" encoding="utf-8"?>
<svg xmlns="http://www.w3.org/2000/svg" viewBox="12.842 35.561 469.542 444.518" width="469.542px" height="444.518px"><g id="object-1" transform="matrix(1, 0, 0, 1, -7.105427357601002e-15, -1.4210854715202004e-14)"><path style="fill: none; stroke: rgb(0, 0, 0); stroke-linecap: round; stroke-linejoin: round; stroke-miterlimit: 10; stroke-width: 20px; visibility: hidden;" d="M 377.002 361.327 C 399.436 332.757 412.927 296.835 412.927 257.696 C 412.927 164.86 337.672 89.605 244.836 89.605 C 151.999 89.605 76.746 164.86 76.746 257.696 C 76.746 350.533 151.999 425.786 244.836 425.786 C 279.323 425.786 311.363 415.368 338.048 397.554 L 409.177 425.786 L 377.002 361.327 Z"/><path style="fill: none; stroke: rgb(0, 0, 0); stroke-linecap: round; stroke-linejoin: round; stroke-miterlimit: 10; stroke-width: 20px;" d="M 334.281 82.931 C 295.344 82.931 261.749 105.21 245.192 137.658 C 228.635 105.21 195.04 82.931 156.104 82.931 C 102 82.931 58.032 125.828 56.061 179.443 C 56.061 280.817 245.192 430.017 245.192 430.017 C 245.192 430.017 434.323 280.607 434.323 179.443 C 432.352 125.828 388.376 82.931 334.281 82.931 Z" id="object-0"/><rect x="12.842" y="35.561" width="469.542" height="444.518" style="stroke: rgb(0, 0, 0); fill: none; stroke-width: 0px;"/></g></svg>