<?xml version="1.0" encoding="utf-8"?>
<svg xmlns="http://www.w3.org/2000/svg" viewBox="12.3309 57.0359 472.3425 401.2195" width="472.342px" height="401.219px" preserveAspectRatio="none"><g id="object-0" transform="matrix(1, 0, 0, 1, -7.105427357601002e-15, 0)"><g transform="matrix(3.985373, 0, 0, 3.985373, -1170.615496, -311.682866)" style=""><polygon style="fill:#FFFFFF;" points="332.289,92.518 332.289,127.474 341.277,127.474 341.277,101.506 398.177,101.506 &#10;&#9;&#9;&#9;&#9;368.558,112.013 368.558,173.696 398.177,184.202 341.277,184.202 341.277,157.476 332.289,157.476 332.289,193.191 &#10;&#9;&#9;&#9;&#9;415.341,193.191 415.341,92.518 &#9;&#9;&#9;"/><polygon style="fill:#FFFFFF;" points="341.215,148.305 341.215,137.404 323.47,137.404 323.469,123.088 296.822,142.854 &#10;&#9;&#9;&#9;&#9;323.47,162.62 323.47,148.305 &#9;&#9;&#9;"/></g></g></svg>