<?xml version="1.0" encoding="utf-8"?>
<svg version="1.1" xmlns="http://www.w3.org/2000/svg" x="0px" y="0px" viewBox="0 0 500 500" style="enable-background:new 0 0 500 500;" xmlns:bx="https://boxy-svg.com" width="500px" height="500px"><defs><bx:export><bx:file format="svg" path="share_icon.svg"/></bx:export></defs><g id="BACKGROUND"/><path style="fill: none; stroke: rgb(0, 0, 0); stroke-linecap: round; stroke-linejoin: round; stroke-miterlimit: 10; stroke-width: 20px; visibility: hidden;" d="M 377.002 361.327 C 399.436 332.757 412.927 296.835 412.927 257.696 C 412.927 164.86 337.672 89.605 244.836 89.605 C 151.999 89.605 76.746 164.86 76.746 257.696 C 76.746 350.533 151.999 425.786 244.836 425.786 C 279.323 425.786 311.363 415.368 338.048 397.554 L 409.177 425.786 L 377.002 361.327 Z"/><path style="fill: none; stroke: rgb(0, 0, 0); stroke-linecap: round; stroke-linejoin: round; stroke-miterlimit: 10; stroke-width: 20px; visibility: hidden;" d="M 334.281 82.931 C 295.344 82.931 261.749 105.21 245.192 137.658 C 228.635 105.21 195.04 82.931 156.104 82.931 C 102 82.931 58.032 125.828 56.061 179.443 C 56.061 280.817 245.192 430.017 245.192 430.017 C 245.192 430.017 434.323 280.607 434.323 179.443 C 432.352 125.828 388.376 82.931 334.281 82.931 Z"/><g transform="matrix(7.890481, 0, 0, 7.890481, -2463.05033, -1074.453263)" style="pointer-events: none;"><polyline style="fill:none;stroke:#000000;stroke-width:3;stroke-linecap:round;stroke-linejoin:round;stroke-miterlimit:10;" points="&#10;&#9;&#9;&#9;351.023,175.238 364.908,150.103 318.702,150.103 337.139,166.447 342.153,191.295 351.023,175.238 &#9;&#9;"/><line style="fill:none;stroke:#000000;stroke-width:3;stroke-linecap:round;stroke-linejoin:round;stroke-miterlimit:10;" x1="337.139" y1="166.447" x2="364.908" y2="150.103"/></g></svg>